<?xml version="1.0" encoding="utf-8"?>
<!-- Generator: Adobe Illustrator 17.0.0, SVG Export Plug-In . SVG Version: 6.00 Build 0)  -->
<!DOCTYPE svg PUBLIC "-//W3C//DTD SVG 1.1//EN" "http://www.w3.org/Graphics/SVG/1.1/DTD/svg11.dtd">
<svg version="1.1" id="Capa_1" xmlns="http://www.w3.org/2000/svg" xmlns:xlink="http://www.w3.org/1999/xlink" x="0px" y="0px"
	 width="1000.025px" height="501.005px" viewBox="0 0 1000.025 501.005" enable-background="new 0 0 1000.025 501.005"
	 xml:space="preserve">
<polygon fill="#57812E" stroke="#FFFFFF" stroke-width="0.8504" stroke-linejoin="bevel" stroke-miterlimit="10" points="
	733.818,83.24 720.863,72.45 733.455,61.078 "/>
<polygon fill="#266439" stroke="#FFFFFF" stroke-width="0.8504" stroke-linejoin="bevel" stroke-miterlimit="10" points="
	763.42,68.644 733.818,83.24 733.455,61.078 "/>
<polygon fill="#57812E" stroke="#FFFFFF" stroke-width="0.8504" stroke-linejoin="bevel" stroke-miterlimit="10" points="
	763.42,68.644 743.165,92.874 733.818,83.24 "/>
<polygon fill="#266439" stroke="#FFFFFF" stroke-width="0.8504" stroke-linejoin="bevel" stroke-miterlimit="10" points="
	763.42,68.644 760.099,101.058 743.165,92.874 "/>
<polygon fill="#57812E" stroke="#FFFFFF" stroke-width="0.8504" stroke-linejoin="bevel" stroke-miterlimit="10" points="
	763.42,68.644 782.22,88.034 760.099,101.058 "/>
<polygon fill="#266439" stroke="#FFFFFF" stroke-width="0.8504" stroke-linejoin="bevel" stroke-miterlimit="10" points="
	782.22,88.034 783.62,105.121 760.099,101.058 "/>
<polygon fill="#266439" stroke="#FFFFFF" stroke-width="0.8504" stroke-linejoin="bevel" stroke-miterlimit="10" points="
	796.845,116.731 791.222,119.366 784.106,104.817 "/>
<polygon fill="#57812E" stroke="#FFFFFF" stroke-width="0.8504" stroke-linejoin="bevel" stroke-miterlimit="10" points="
	784.041,99.343 784.106,104.817 796.845,116.731 "/>
<polygon fill="#57812E" stroke="#FFFFFF" stroke-width="0.8504" stroke-linejoin="bevel" stroke-miterlimit="10" points="
	743.165,92.874 760.099,101.058 737.416,98.902 "/>
<polygon fill="#57812E" stroke="#FFFFFF" stroke-width="0.8504" stroke-linejoin="bevel" stroke-miterlimit="10" points="
	720.863,72.45 706.809,61.502 723.845,58.016 "/>
<polygon fill="#266439" stroke="#FFFFFF" stroke-width="0.8504" stroke-linejoin="bevel" stroke-miterlimit="10" points="
	720.863,72.45 733.455,61.078 723.845,58.016 "/>
<polygon fill="#266439" stroke="#FFFFFF" stroke-width="0.8504" stroke-linejoin="bevel" stroke-miterlimit="10" points="
	718.307,79.835 733.818,83.24 720.863,72.45 "/>
<polygon fill="#57812E" stroke="#FFFFFF" stroke-width="0.8504" stroke-linejoin="bevel" stroke-miterlimit="10" points="
	729.674,50.848 723.845,58.016 733.455,61.078 "/>
<polygon fill="#57812E" stroke="#FFFFFF" stroke-width="0.8504" stroke-linejoin="bevel" stroke-miterlimit="10" points="
	739.719,54.366 763.42,68.644 733.455,61.078 "/>
<polygon fill="#266439" stroke="#FFFFFF" stroke-width="0.8504" stroke-linejoin="bevel" stroke-miterlimit="10" points="
	766.444,62.823 782.22,88.034 763.42,68.644 "/>
<polygon fill="#57812E" stroke="#FFFFFF" stroke-width="0.8504" stroke-linejoin="bevel" stroke-miterlimit="10" points="
	781.595,76.597 782.22,88.034 766.444,62.823 "/>
<polygon fill="#266439" stroke="#FFFFFF" stroke-width="0.8504" stroke-linejoin="bevel" stroke-miterlimit="10" points="
	727.541,87.169 743.165,92.874 733.818,83.24 "/>
<polygon fill="#266439" stroke="#FFFFFF" stroke-width="1.4173" stroke-linejoin="bevel" stroke-miterlimit="10" points="392,80 
	473,80 539,176 "/>
<polyline fill="#266439" stroke="#FFFFFF" stroke-width="1.4173" stroke-linejoin="bevel" stroke-miterlimit="10" points="392,80 
	393,186 460,124 "/>
<polygon fill="#572A26" stroke="#FFFFFF" stroke-width="1.4173" stroke-linejoin="round" stroke-miterlimit="10" points="
	509.846,189.036 493.678,146.376 539.371,176.37 "/>
<polyline fill="#57812E" stroke="#FFFFFF" stroke-width="1.4173" stroke-linejoin="round" stroke-miterlimit="10" points="
	509.846,189.036 493.678,146.376 539.371,176.37 "/>
<polygon fill="#266439" stroke="#FFFFFF" stroke-width="1.4173" stroke-linejoin="bevel" stroke-miterlimit="10" points="
	509.846,189.036 486.512,186.73 493.678,146.376 "/>
<polygon fill="#57812E" stroke="#FFFFFF" stroke-width="1.4173" stroke-linejoin="bevel" stroke-miterlimit="10" points="407,124 
	392,80 460,124 "/>
<polygon fill="#266439" stroke="#FFFFFF" stroke-width="1.4173" stroke-linejoin="round" stroke-miterlimit="10" points="
	385.184,198.781 438.229,250.934 524.196,226.896 "/>
<polygon fill="#57812E" stroke="#FFFFFF" stroke-width="1.4173" stroke-linejoin="round" stroke-miterlimit="10" points="
	438.229,250.934 385.184,198.781 461.189,214.153 "/>
<polygon fill="#266439" stroke="#FFFFFF" stroke-width="1.4173" stroke-linejoin="round" stroke-miterlimit="10" points="
	394.256,255.011 438.229,250.934 385.184,198.781 "/>
<polygon fill="#266439" stroke="#FFFFFF" stroke-width="1.4173" stroke-linejoin="bevel" stroke-miterlimit="10" points="
	385.184,198.781 394.256,185.749 425.759,206.987 "/>
<polyline fill="#57812E" stroke="#FFFFFF" stroke-width="1.4173" stroke-linejoin="bevel" stroke-miterlimit="10" points="
	419.505,161.38 425.759,206.987 392.843,185.749 419.505,161.38 460.211,124.173 "/>
<polygon fill="#57812E" stroke="#FFFFFF" stroke-width="1.4173" stroke-linejoin="bevel" stroke-miterlimit="10" points="
	344.434,227.97 394.256,255.011 385.184,198.781 "/>
<circle fill="#266439" stroke="#FFFFFF" stroke-width="1.4173" stroke-linejoin="bevel" stroke-miterlimit="10" cx="310" cy="136" r="98.522"/>
<ellipse fill="#57812E" stroke="#FFFFFF" stroke-width="1.4173" stroke-linejoin="bevel" stroke-miterlimit="10" cx="266" cy="151" rx="99.631" ry="99.539"/>
<circle fill="#266439" stroke="#FFFFFF" stroke-width="1.4173" stroke-linejoin="bevel" stroke-miterlimit="10" cx="208" cy="199" r="98.41"/>
<circle fill="#266439" stroke="#FFFFFF" stroke-width="1.4173" stroke-linejoin="bevel" stroke-miterlimit="10" cx="368" cy="178" r="12"/>
<circle fill="#57812E" stroke="#FFFFFF" stroke-width="1.4173" stroke-linejoin="bevel" stroke-miterlimit="10" cx="355" cy="186" r="13"/>
<circle fill="#266439" stroke="#FFFFFF" stroke-width="1.4173" stroke-linejoin="bevel" stroke-miterlimit="10" cx="342" cy="191" r="14"/>
<circle fill="#57812E" stroke="#FFFFFF" stroke-width="1.4173" stroke-linejoin="bevel" stroke-miterlimit="10" cx="328" cy="196" r="15"/>
<circle fill="#266439" stroke="#FFFFFF" stroke-width="1.4173" stroke-linejoin="bevel" stroke-miterlimit="10" cx="315" cy="202" r="16"/>
<polygon fill="#266439" stroke="#FFFFFF" stroke-width="1.4173" stroke-linejoin="bevel" stroke-miterlimit="10" points="
	461.189,214.153 425.759,206.987 463.819,195.297 "/>
<circle display="none" fill="#FFFFFF" stroke="#E1E1E0" stroke-width="2.8346" stroke-miterlimit="10" cx="750.39" cy="79.858" r="25"/>
<circle display="none" fill="#E78383" stroke="#FFFFFF" stroke-width="1.4173" stroke-miterlimit="10" cx="431.191" cy="173.718" r="17.5"/>
<circle display="none" fill="#E6A290" stroke="#FFFFFF" stroke-width="1.4173" stroke-miterlimit="10" cx="450.182" cy="194.735" r="15"/>
<circle display="none" fill="#E78383" stroke="#FFFFFF" stroke-width="1.4173" stroke-miterlimit="10" cx="472.769" cy="204.407" r="16.5"/>
<circle display="none" fill="#E6A290" stroke="#FFFFFF" stroke-width="1.4173" stroke-miterlimit="10" cx="497.426" cy="206.987" r="15"/>
<circle display="none" fill="#E78383" stroke="#FFFFFF" stroke-width="1.4173" stroke-miterlimit="10" cx="515.034" cy="204.942" r="12.5"/>
<circle display="none" fill="#E6A290" stroke="#FFFFFF" stroke-width="1.4173" stroke-miterlimit="10" cx="528.229" cy="201.485" r="9"/>
<circle display="none" fill="#E78383" stroke="#FFFFFF" stroke-width="1.4173" stroke-miterlimit="10" cx="541.372" cy="195.779" r="9"/>
<circle display="none" fill="#E6A290" stroke="#FFFFFF" stroke-width="1.4173" stroke-miterlimit="10" cx="554.226" cy="189.893" r="9"/>
<circle display="none" fill="#E78383" stroke="#FFFFFF" stroke-width="1.4173" stroke-miterlimit="10" cx="564.848" cy="180.393" r="9"/>
<circle display="none" fill="#E6A290" stroke="#FFFFFF" stroke-width="1.4173" stroke-miterlimit="10" cx="572.842" cy="169.707" r="9"/>
<circle display="none" fill="#E78383" stroke="#FFFFFF" stroke-width="1.4173" stroke-miterlimit="10" cx="580.841" cy="160.93" r="9"/>
<circle display="none" fill="#E6A290" stroke="#FFFFFF" stroke-width="1.4173" stroke-miterlimit="10" cx="587.84" cy="151.395" r="9"/>
<circle display="none" fill="#E78383" stroke="#FFFFFF" stroke-width="1.4173" stroke-miterlimit="10" cx="600.842" cy="142.128" r="10.5"/>
<circle display="none" fill="#E6A290" stroke="#FFFFFF" stroke-width="1.4173" stroke-miterlimit="10" cx="615.345" cy="144.293" r="11"/>
<circle display="none" fill="#E78383" stroke="#FFFFFF" stroke-width="1.4173" stroke-miterlimit="10" cx="631.347" cy="144.391" r="12"/>
<circle display="none" fill="#E6A290" stroke="#FFFFFF" stroke-width="1.4173" stroke-miterlimit="10" cx="646.814" cy="145.889" r="13"/>
<circle display="none" fill="#E78383" stroke="#FFFFFF" stroke-width="1.4173" stroke-miterlimit="10" cx="663.816" cy="138.885" r="12.5"/>
<circle display="none" fill="#E6A290" stroke="#FFFFFF" stroke-width="1.4173" stroke-miterlimit="10" cx="677.512" cy="127.886" r="14"/>
<circle display="none" fill="#E78383" stroke="#FFFFFF" stroke-width="1.4173" stroke-miterlimit="10" cx="691.125" cy="118.128" r="13.5"/>
<circle display="none" fill="#E6A290" stroke="#FFFFFF" stroke-width="1.4173" stroke-miterlimit="10" cx="702.43" cy="107.002" r="13.5"/>
<circle display="none" fill="#E78383" stroke="#FFFFFF" stroke-width="1.4173" stroke-miterlimit="10" cx="718.891" cy="93.592" r="15.5"/>
<polygon fill="#57812E" stroke="#FFFFFF" stroke-width="1.4173" stroke-linejoin="bevel" stroke-miterlimit="10" points="
	419.505,161.38 446.217,177.394 460,124 "/>
<polyline fill="#266439" stroke="#FFFFFF" stroke-width="1.4173" stroke-linejoin="bevel" stroke-miterlimit="10" points="
	493.678,146.24 486.512,186.73 493.678,146.376 "/>
<line fill="none" stroke="#FFFFFF" stroke-width="1.4173" stroke-linejoin="bevel" stroke-miterlimit="10" x1="446.217" y1="177.394" x2="493.678" y2="146.376"/>
<polygon fill="#57812E" stroke="#FFFFFF" stroke-width="1.4173" stroke-linejoin="round" stroke-miterlimit="10" points="
	486.512,186.73 446.217,177.394 493.678,146.376 "/>
<circle fill="#266439" stroke="#FFFFFF" stroke-width="1.4173" stroke-linejoin="bevel" stroke-miterlimit="10" cx="500" cy="259" r="13"/>
<circle fill="#57812E" stroke="#FFFFFF" stroke-width="1.4173" stroke-linejoin="bevel" stroke-miterlimit="10" cx="484" cy="257" r="8"/>
<polygon fill="#266439" stroke="#FFFFFF" stroke-width="1.4173" stroke-linejoin="bevel" stroke-miterlimit="10" points="
	493.678,146.376 446.217,177.394 460.211,124.173 "/>
<polygon fill="#266439" stroke="#FFFFFF" stroke-width="1.4173" stroke-linejoin="round" stroke-miterlimit="10" points="
	535.086,203.247 535.086,217.696 514.588,202.72 "/>
<polyline fill="#57812E" stroke="#FFFFFF" stroke-width="1.4173" stroke-linejoin="bevel" stroke-miterlimit="10" points="
	524.196,226.896 461.189,214.153 463.819,195.297 "/>
<line fill="none" stroke="#FFFFFF" stroke-width="1.4173" stroke-linejoin="bevel" stroke-miterlimit="10" x1="461.189" y1="214.153" x2="463.819" y2="195.297"/>
<path fill="#57812E" stroke="#FFFFFF" stroke-width="1.4173" stroke-linejoin="bevel" stroke-miterlimit="10" d="M463.819,195.297
	l-38.06,11.69l8.666-26.723C448.355,189.844,463.819,195.297,463.819,195.297z"/>
<path fill="#8D8830" d="M942.183,104.817L942.183,104.817L94.476,354.507l-84.22,24.807l-1.9,0.56L0,382.336l-0.732,0.216
	c-1.499,0.442-4.258,0.241-4.333,1.421c-0.383,6.007-0.412,6.401-0.631,9.398l0.631-9.398c-0.311,4.631-0.493,8.554-0.87,12.762
	c-0.034,0.381,3.067-0.392,5.935-1.187c1.035-0.287,2.04-0.577,2.856-0.818l3.896-1.148l2.582-0.761l84.818-24.991l863.872-254.536
	l8.154-2.402"/>
<circle fill="#266439" stroke="#FFFFFF" stroke-width="1.4173" stroke-linejoin="bevel" stroke-miterlimit="10" cx="82" cy="224" r="18.614"/>
<circle fill="#57812E" stroke="#FFFFFF" stroke-width="1.4173" stroke-linejoin="bevel" stroke-miterlimit="10" cx="77" cy="239" r="13.686"/>
<circle fill="#266439" stroke="#FFFFFF" stroke-width="1.4173" stroke-linejoin="bevel" stroke-miterlimit="10" cx="76" cy="251" r="12.091"/>
<circle fill="#57812E" stroke="#FFFFFF" stroke-width="1.4173" stroke-linejoin="bevel" stroke-miterlimit="10" cx="73" cy="262" r="9.307"/>
<circle fill="#266439" stroke="#FFFFFF" stroke-width="1.4173" stroke-linejoin="bevel" stroke-miterlimit="10" cx="71" cy="272" r="7.593"/>
<circle fill="#57812E" stroke="#FFFFFF" stroke-width="1.4173" stroke-linejoin="bevel" stroke-miterlimit="10" cx="71" cy="281" r="7.593"/>
<circle fill="#266439" stroke="#FFFFFF" stroke-width="1.4173" stroke-linejoin="bevel" stroke-miterlimit="10" cx="71" cy="291" r="7.593"/>
<circle fill="#57812E" stroke="#FFFFFF" stroke-width="1.4173" stroke-linejoin="bevel" stroke-miterlimit="10" cx="166" cy="240" r="83.542"/>
<circle fill="#266439" stroke="#FFFFFF" stroke-width="1.4173" stroke-linejoin="bevel" stroke-miterlimit="10" cx="126" cy="279" r="55.658"/>
<circle fill="#57812E" stroke="#FFFFFF" stroke-width="1.4173" stroke-linejoin="bevel" stroke-miterlimit="10" cx="105" cy="311" r="42.001"/>
<circle fill="#266439" stroke="#FFFFFF" stroke-width="1.4173" stroke-linejoin="bevel" stroke-miterlimit="10" cx="88.001" cy="340" r="33.438"/>
<circle fill="#57812E" stroke="#FFFFFF" stroke-width="1.4173" stroke-linejoin="bevel" stroke-miterlimit="10" cx="78" cy="370" r="29.375"/>
<circle fill="#266439" stroke="#FFFFFF" stroke-width="1.4173" stroke-linejoin="bevel" stroke-miterlimit="10" cx="79" cy="398" r="26.962"/>
<circle fill="#57812E" stroke="#FFFFFF" stroke-width="1.4173" stroke-linejoin="bevel" stroke-miterlimit="10" cx="90" cy="429" r="25.576"/>
<circle fill="#266439" stroke="#FFFFFF" stroke-width="1.4173" stroke-linejoin="bevel" stroke-miterlimit="10" cx="107" cy="452" r="23.086"/>
<circle fill="#57812E" stroke="#FFFFFF" stroke-width="1.4173" stroke-linejoin="bevel" stroke-miterlimit="10" cx="126" cy="462" r="16.706"/>
<circle fill="#266439" stroke="#FFFFFF" stroke-width="1.4173" stroke-linejoin="bevel" stroke-miterlimit="10" cx="146" cy="466" r="16.312"/>
<circle fill="#57812E" stroke="#FFFFFF" stroke-width="1.4173" stroke-linejoin="bevel" stroke-miterlimit="10" cx="165" cy="467" r="14.756"/>
<circle fill="#266439" stroke="#FFFFFF" stroke-width="1.4173" stroke-linejoin="bevel" stroke-miterlimit="10" cx="182" cy="466" r="14.756"/>
<circle fill="#57812E" stroke="#FFFFFF" stroke-width="1.4173" stroke-linejoin="bevel" stroke-miterlimit="10" cx="197" cy="460" r="14.756"/>
<circle fill="#266439" stroke="#FFFFFF" stroke-width="1.4173" stroke-linejoin="bevel" stroke-miterlimit="10" cx="138" cy="319" r="19.733"/>
<circle fill="#57812E" stroke="#FFFFFF" stroke-width="1.4173" stroke-linejoin="bevel" stroke-miterlimit="10" cx="157" cy="314" r="18.614"/>
<circle fill="#266439" stroke="#FFFFFF" stroke-width="1.4173" stroke-linejoin="bevel" stroke-miterlimit="10" cx="176" cy="307.997" r="18.614"/>
<circle fill="#57812E" stroke="#FFFFFF" stroke-width="1.4173" stroke-linejoin="bevel" stroke-miterlimit="10" cx="193" cy="301" r="18.614"/>
<circle fill="#266439" stroke="#FFFFFF" stroke-width="1.4173" stroke-linejoin="bevel" stroke-miterlimit="10" cx="210" cy="293" r="18.614"/>
<circle fill="#57812E" stroke="#FFFFFF" stroke-width="1.4173" stroke-linejoin="bevel" stroke-miterlimit="10" cx="227" cy="286" r="18.614"/>
<circle fill="#266439" stroke="#FFFFFF" stroke-width="1.4173" stroke-linejoin="bevel" stroke-miterlimit="10" cx="245" cy="291" r="15.96"/>
<circle fill="#57812E" stroke="#FFFFFF" stroke-width="1.4173" stroke-linejoin="bevel" stroke-miterlimit="10" cx="259" cy="296" r="15.927"/>
<circle fill="#266439" stroke="#FFFFFF" stroke-width="1.4173" stroke-linejoin="bevel" stroke-miterlimit="10" cx="274" cy="301" r="15.927"/>
<circle fill="#57812E" stroke="#FFFFFF" stroke-width="1.4173" stroke-linejoin="bevel" stroke-miterlimit="10" cx="290" cy="307" r="15.927"/>
<circle fill="#266439" stroke="#FFFFFF" stroke-width="1.4173" stroke-linejoin="bevel" stroke-miterlimit="10" cx="306" cy="306" r="14.989"/>
<circle fill="#57812E" stroke="#FFFFFF" stroke-width="1.4173" stroke-linejoin="bevel" stroke-miterlimit="10" cx="296" cy="215" r="21.5"/>
<circle fill="#266439" stroke="#FFFFFF" stroke-width="1.4173" stroke-linejoin="bevel" stroke-miterlimit="10" cx="310" cy="231" r="16.5"/>
<circle fill="#57812E" stroke="#FFFFFF" stroke-width="1.4173" stroke-linejoin="bevel" stroke-miterlimit="10" cx="325" cy="239" r="16.5"/>
<circle fill="#266439" stroke="#FFFFFF" stroke-width="1.4173" stroke-linejoin="bevel" stroke-miterlimit="10" cx="339" cy="247" r="15.5"/>
<circle fill="#57812E" stroke="#FFFFFF" stroke-width="1.4173" stroke-linejoin="bevel" stroke-miterlimit="10" cx="352" cy="255" r="14.5"/>
<circle fill="#266439" stroke="#FFFFFF" stroke-width="1.4173" stroke-linejoin="bevel" stroke-miterlimit="10" cx="366" cy="262" r="14.5"/>
<circle fill="#57812E" stroke="#FFFFFF" stroke-width="1.4173" stroke-linejoin="bevel" stroke-miterlimit="10" cx="378" cy="270" r="16.5"/>
<circle fill="#266439" stroke="#FFFFFF" stroke-width="1.4173" stroke-linejoin="bevel" stroke-miterlimit="10" cx="390" cy="281" r="16.5"/>
<circle fill="#266439" stroke="#FFFFFF" stroke-width="1.4173" stroke-linejoin="bevel" stroke-miterlimit="10" cx="396" cy="297" r="6.503"/>
<circle fill="#57812E" stroke="#FFFFFF" stroke-width="1.4173" stroke-linejoin="bevel" stroke-miterlimit="10" cx="401" cy="289" r="8"/>
<circle fill="#57812E" stroke="#FFFFFF" stroke-width="1.4173" stroke-linejoin="bevel" stroke-miterlimit="10" cx="321" cy="306" r="9.037"/>
<circle fill="#266439" stroke="#FFFFFF" stroke-width="1.4173" stroke-linejoin="bevel" stroke-miterlimit="10" cx="210" cy="450" r="14.756"/>
<circle fill="#57812E" stroke="#FFFFFF" stroke-width="1.4173" stroke-linejoin="bevel" stroke-miterlimit="10" cx="220" cy="436" r="14.756"/>
<circle fill="#266439" stroke="#FFFFFF" stroke-width="1.4173" stroke-linejoin="bevel" stroke-miterlimit="10" cx="223" cy="421" r="14.756"/>
<circle fill="#57812E" stroke="#FFFFFF" stroke-width="1.4173" stroke-linejoin="bevel" stroke-miterlimit="10" cx="226" cy="404" r="15.805"/>
<circle fill="#266439" stroke="#FFFFFF" stroke-width="1.4173" stroke-linejoin="bevel" stroke-miterlimit="10" cx="223" cy="386" r="16.067"/>
<circle fill="#57812E" stroke="#FFFFFF" stroke-width="1.4173" stroke-linejoin="bevel" stroke-miterlimit="10" cx="215" cy="368" r="15.855"/>
<circle fill="#266439" stroke="#FFFFFF" stroke-width="1.4173" stroke-linejoin="bevel" stroke-miterlimit="10" cx="198" cy="355" r="15.112"/>
<circle fill="#57812E" stroke="#FFFFFF" stroke-width="1.4173" stroke-linejoin="bevel" stroke-miterlimit="10" cx="179" cy="349" r="15.194"/>
<circle fill="#266439" stroke="#FFFFFF" stroke-width="1.4173" stroke-linejoin="bevel" stroke-miterlimit="10" cx="163" cy="350" r="14.367"/>
<circle fill="#57812E" stroke="#FFFFFF" stroke-width="1.4173" stroke-linejoin="bevel" stroke-miterlimit="10" cx="146" cy="356" r="14.034"/>
<circle fill="#266439" stroke="#FFFFFF" stroke-width="1.4173" stroke-linejoin="bevel" stroke-miterlimit="10" cx="135" cy="369" r="14.68"/>
<circle fill="#57812E" stroke="#FFFFFF" stroke-width="1.4173" stroke-linejoin="bevel" stroke-miterlimit="10" cx="128" cy="383" r="15.7"/>
<circle fill="#266439" stroke="#FFFFFF" stroke-width="1.4173" stroke-linejoin="bevel" stroke-miterlimit="10" cx="128" cy="400" r="15.194"/>
<circle fill="#57812E" stroke="#FFFFFF" stroke-width="1.4173" stroke-linejoin="bevel" stroke-miterlimit="10" cx="135" cy="420" r="14.95"/>
<circle fill="#266439" stroke="#FFFFFF" stroke-width="1.4173" stroke-linejoin="bevel" stroke-miterlimit="10" cx="147" cy="431" r="12.741"/>
<circle fill="#57812E" stroke="#FFFFFF" stroke-width="1.4173" stroke-linejoin="bevel" stroke-miterlimit="10" cx="160" cy="434" r="12.156"/>
<circle fill="#266439" stroke="#FFFFFF" stroke-width="1.4173" stroke-linejoin="bevel" stroke-miterlimit="10" cx="172" cy="434" r="12.137"/>
<circle fill="#57812E" stroke="#FFFFFF" stroke-width="1.4173" stroke-linejoin="bevel" stroke-miterlimit="10" cx="182" cy="427" r="13.602"/>
<circle fill="#266439" stroke="#FFFFFF" stroke-width="1.4173" stroke-linejoin="bevel" stroke-miterlimit="10" cx="189" cy="418" r="12.045"/>
<circle fill="#57812E" stroke="#FFFFFF" stroke-width="1.4173" stroke-linejoin="bevel" stroke-miterlimit="10" cx="192" cy="403" r="11.023"/>
<circle fill="#266439" stroke="#FFFFFF" stroke-width="1.4173" stroke-linejoin="bevel" stroke-miterlimit="10" cx="189" cy="390" r="12.114"/>
<circle fill="#57812E" stroke="#FFFFFF" stroke-width="1.4173" stroke-linejoin="bevel" stroke-miterlimit="10" cx="183" cy="383" r="10.21"/>
<circle fill="#266439" stroke="#FFFFFF" stroke-width="1.4173" stroke-linejoin="bevel" stroke-miterlimit="10" cx="175" cy="378" r="8.337"/>
<circle fill="#57812E" stroke="#FFFFFF" stroke-width="1.4173" stroke-linejoin="bevel" stroke-miterlimit="10" cx="166" cy="378" r="6.354"/>
<circle fill="#266439" stroke="#FFFFFF" stroke-width="1.4173" stroke-linejoin="bevel" stroke-miterlimit="10" cx="159" cy="382" r="6.354"/>
<circle fill="#57812E" stroke="#FFFFFF" stroke-width="1.4173" stroke-linejoin="bevel" stroke-miterlimit="10" cx="155" cy="388" r="6.608"/>
<circle fill="#266439" stroke="#FFFFFF" stroke-width="1.4173" stroke-linejoin="bevel" stroke-miterlimit="10" cx="154" cy="395" r="5.719"/>
<circle fill="#57812E" stroke="#FFFFFF" stroke-width="1.4173" stroke-linejoin="bevel" stroke-miterlimit="10" cx="157" cy="402" r="5.415"/>
<circle fill="#266439" stroke="#FFFFFF" stroke-width="1.4173" stroke-linejoin="bevel" stroke-miterlimit="10" cx="164" cy="404" r="5.111"/>
<circle fill="#57812E" stroke="#FFFFFF" stroke-width="1.4173" stroke-linejoin="bevel" stroke-miterlimit="10" cx="304" cy="286" r="16.797"/>
<polygon fill="#57812E" stroke="#FFFFFF" stroke-width="1.4173" stroke-linejoin="bevel" stroke-miterlimit="10" points="392,80 
	400,29 438,80 "/>
<polygon fill="#266439" stroke="#FFFFFF" stroke-width="1.4173" stroke-linejoin="bevel" stroke-miterlimit="10" points="421,29 
	410,42 400,29 "/>
<polygon fill="#57812E" stroke="#FFFFFF" stroke-width="1.4173" stroke-linejoin="bevel" stroke-miterlimit="10" points="443,42 
	410,42 421,29 "/>
<polygon fill="#266439" stroke="#FFFFFF" stroke-width="1.4173" stroke-linejoin="bevel" stroke-miterlimit="10" points="
	438.007,80 443,42 410,42 "/>
<polygon fill="#57812E" stroke="#FFFFFF" stroke-width="1.4173" stroke-linejoin="bevel" stroke-miterlimit="10" points="473,80 
	443,42 438.007,80 "/>
<polygon fill="#57812E" stroke="#FFFFFF" stroke-width="1.4173" stroke-linejoin="bevel" stroke-miterlimit="10" points="486,99 
	505,100 501.188,121 "/>
<polygon fill="#266439" stroke="#FFFFFF" stroke-width="1.4173" stroke-linejoin="round" stroke-miterlimit="10" points="
	522.231,121.412 505.092,100.371 501.576,121.412 "/>
<polygon fill="#57812E" stroke="#FFFFFF" stroke-width="1.4173" stroke-linejoin="round" stroke-miterlimit="10" points="
	539.371,176.37 522.231,121.412 501.576,121.412 "/>
<circle fill="#57812E" stroke="#FFFFFF" stroke-width="1.4173" stroke-linejoin="bevel" stroke-miterlimit="10" cx="473" cy="144" r="22.717"/>
<circle fill="#266439" stroke="#FFFFFF" stroke-width="1.4173" stroke-linejoin="bevel" stroke-miterlimit="10" cx="470" cy="146" r="17.853"/>
<circle fill="#57812E" stroke="#FFFFFF" stroke-width="1.4173" stroke-linejoin="bevel" stroke-miterlimit="10" cx="466" cy="150" r="13.767"/>
<circle fill="#010202" stroke="#FFFFFF" stroke-width="1.4173" stroke-miterlimit="10" cx="457" cy="149" r="5"/>
<line fill="none" stroke="#FFFFFF" stroke-width="1.4173" stroke-linejoin="bevel" stroke-miterlimit="10" x1="460.211" y1="124.173" x2="392.843" y2="79.752"/>
<path fill="#57812E" d="M535.086,201.405"/>
<line fill="none" stroke="#FFFFFF" stroke-width="1.4173" stroke-linejoin="bevel" stroke-miterlimit="10" x1="460.211" y1="124.173" x2="472.769" y2="79.752"/>
<path fill="#57812E" d="M438.229,250.934"/>
<line fill="none" stroke="#FFFFFF" stroke-width="1.4173" stroke-linejoin="bevel" stroke-miterlimit="10" x1="460.211" y1="124.173" x2="407.356" y2="124.173"/>
<polygon fill="#57812E" stroke="#FFFFFF" stroke-width="1.4173" stroke-linejoin="bevel" stroke-miterlimit="10" points="
	535.086,217.696 524.196,226.896 514.6,202.72 "/>
<polygon fill="#266439" stroke="#FFFFFF" stroke-width="1.4173" stroke-linejoin="bevel" stroke-miterlimit="10" points="
	463.819,195.297 514.6,202.72 524.196,226.896 "/>
<path fill="#57812E" stroke="#FFFFFF" stroke-width="1.4173" stroke-linejoin="bevel" stroke-miterlimit="10" d="M426.282,205.488"
	/>
<path fill="#57812E" stroke="#FFFFFF" stroke-width="1.4173" stroke-linejoin="bevel" stroke-miterlimit="10" d="M460.341,213.141"
	/>
<polygon fill="#266439" stroke="#FFFFFF" stroke-width="1.4173" stroke-linejoin="bevel" stroke-miterlimit="10" points="
	434.424,180.264 425.759,206.987 419.505,161.38 "/>
<polyline display="none" fill="#266439" stroke="#FFFFFF" stroke-width="1.4173" stroke-miterlimit="10" points="509.846,189.036 
	543.225,188.814 539.371,176.37 509.846,189.036 "/>
<circle display="none" fill="#E78383" stroke="#FFFFFF" stroke-width="1.4173" stroke-miterlimit="10" cx="749.401" cy="71.147" r="14"/>
<circle display="none" fill="#E78383" stroke="#FFFFFF" stroke-width="1.4173" stroke-miterlimit="10" cx="757.4" cy="91.036" r="9"/>
<circle display="none" fill="#E6A290" stroke="#FFFFFF" stroke-width="1.4173" stroke-miterlimit="10" cx="734.391" cy="86.147" r="18"/>
<polygon fill="#266439" stroke="#FFFFFF" stroke-width="1.4173" stroke-linejoin="bevel" stroke-miterlimit="10" points="
	526.963,188.478 539.371,176.37 509.846,189.036 "/>
<polyline fill="#8D8830" points="839.669,23.814 823.197,35.5 771.388,167.106 786.02,162.795 "/>
</svg>
